<mxfile host="app.diagrams.net" agent="Mozilla/5.0 (Windows NT 10.0; Win64; x64) AppleWebKit/537.36 (KHTML, like Gecko) Chrome/139.0.0.0 Safari/537.36" version="28.2.0">
  <diagram name="PÃ¡gina-1" id="KcSvIUdmEN8ScOhI-rPm">
    <mxGraphModel dx="366" dy="185" grid="1" gridSize="10" guides="1" tooltips="1" connect="1" arrows="1" fold="1" page="1" pageScale="1" pageWidth="827" pageHeight="1169" math="0" shadow="0">
      <root>
        <mxCell id="0" />
        <mxCell id="1" parent="0" />
        <mxCell id="ASuYB_w1Ll3GmxtU4Yrd-1" value="" style="edgeStyle=orthogonalEdgeStyle;rounded=0;orthogonalLoop=1;jettySize=auto;html=1;strokeColor=light-dark(#000000,#000000);align=center;verticalAlign=middle;fontFamily=Helvetica;fontSize=11;fontColor=default;labelBackgroundColor=default;endArrow=classic;" edge="1" parent="1" source="xy5n8G1pJrpaB1OT9_6e-20" target="xy5n8G1pJrpaB1OT9_6e-15">
          <mxGeometry relative="1" as="geometry" />
        </mxCell>
        <mxCell id="xy5n8G1pJrpaB1OT9_6e-13" style="edgeStyle=orthogonalEdgeStyle;rounded=0;orthogonalLoop=1;jettySize=auto;html=1;strokeColor=light-dark(#000000,#000000);align=center;verticalAlign=middle;fontFamily=Helvetica;fontSize=11;fontColor=default;fillColor=default;labelBackgroundColor=default;endArrow=classic;" parent="1" source="xy5n8G1pJrpaB1OT9_6e-3" target="xy5n8G1pJrpaB1OT9_6e-12" edge="1">
          <mxGeometry relative="1" as="geometry" />
        </mxCell>
        <mxCell id="xy5n8G1pJrpaB1OT9_6e-3" value="Inicio" style="ellipse;whiteSpace=wrap;html=1;rounded=0;strokeColor=light-dark(#000000,#000000);align=center;verticalAlign=middle;fontFamily=Helvetica;fontSize=11;fontColor=default;labelBackgroundColor=default;" parent="1" vertex="1">
          <mxGeometry x="300" y="20" width="120" height="50" as="geometry" />
        </mxCell>
        <mxCell id="xy5n8G1pJrpaB1OT9_6e-25" style="edgeStyle=orthogonalEdgeStyle;rounded=0;orthogonalLoop=1;jettySize=auto;html=1;entryX=0.5;entryY=0;entryDx=0;entryDy=0;strokeColor=light-dark(#000000,#000000);align=center;verticalAlign=middle;fontFamily=Helvetica;fontSize=11;fontColor=default;fillColor=default;labelBackgroundColor=default;endArrow=classic;" parent="1" source="xy5n8G1pJrpaB1OT9_6e-6" target="xy5n8G1pJrpaB1OT9_6e-37" edge="1">
          <mxGeometry relative="1" as="geometry">
            <mxPoint x="155" y="450" as="targetPoint" />
          </mxGeometry>
        </mxCell>
        <mxCell id="xy5n8G1pJrpaB1OT9_6e-6" value="&amp;nbsp;Sensor Luminosidad ON" style="rounded=0;whiteSpace=wrap;html=1;strokeColor=light-dark(#000000,#000000);align=center;verticalAlign=middle;fontFamily=Helvetica;fontSize=11;fontColor=default;labelBackgroundColor=default;" parent="1" vertex="1">
          <mxGeometry x="90" y="345" width="120" height="50" as="geometry" />
        </mxCell>
        <mxCell id="xy5n8G1pJrpaB1OT9_6e-18" style="edgeStyle=orthogonalEdgeStyle;rounded=0;orthogonalLoop=1;jettySize=auto;html=1;exitX=0.5;exitY=1;exitDx=0;exitDy=0;entryX=0.5;entryY=0;entryDx=0;entryDy=0;strokeColor=light-dark(#000000,#000000);align=center;verticalAlign=middle;fontFamily=Helvetica;fontSize=11;fontColor=default;labelBackgroundColor=default;endArrow=classic;" parent="1" source="xy5n8G1pJrpaB1OT9_6e-12" target="xy5n8G1pJrpaB1OT9_6e-15" edge="1">
          <mxGeometry relative="1" as="geometry" />
        </mxCell>
        <mxCell id="xy5n8G1pJrpaB1OT9_6e-12" value="Lectura de datos Sensor de Mov" style="rounded=0;whiteSpace=wrap;html=1;strokeColor=light-dark(#000000,#000000);align=center;verticalAlign=middle;fontFamily=Helvetica;fontSize=11;fontColor=default;labelBackgroundColor=default;" parent="1" vertex="1">
          <mxGeometry x="300" y="140" width="120" height="60" as="geometry" />
        </mxCell>
        <mxCell id="xy5n8G1pJrpaB1OT9_6e-21" style="edgeStyle=orthogonalEdgeStyle;rounded=0;orthogonalLoop=1;jettySize=auto;html=1;exitX=0;exitY=0.5;exitDx=0;exitDy=0;entryX=1;entryY=0.5;entryDx=0;entryDy=0;strokeColor=light-dark(#000000,#000000);align=center;verticalAlign=middle;fontFamily=Helvetica;fontSize=11;fontColor=default;fillColor=default;labelBackgroundColor=default;endArrow=classic;" parent="1" edge="1">
          <mxGeometry relative="1" as="geometry">
            <mxPoint x="320" y="370" as="sourcePoint" />
            <mxPoint x="210" y="370" as="targetPoint" />
          </mxGeometry>
        </mxCell>
        <mxCell id="xy5n8G1pJrpaB1OT9_6e-35" style="edgeStyle=orthogonalEdgeStyle;rounded=0;orthogonalLoop=1;jettySize=auto;html=1;exitX=1;exitY=0.5;exitDx=0;exitDy=0;entryX=0;entryY=0.5;entryDx=0;entryDy=0;strokeColor=light-dark(#000000,#000000);align=center;verticalAlign=middle;fontFamily=Helvetica;fontSize=11;fontColor=default;fillColor=default;labelBackgroundColor=default;endArrow=classic;" parent="1" source="xy5n8G1pJrpaB1OT9_6e-15" target="xy5n8G1pJrpaB1OT9_6e-29" edge="1">
          <mxGeometry relative="1" as="geometry" />
        </mxCell>
        <mxCell id="xy5n8G1pJrpaB1OT9_6e-15" value="Hay alguien en la sala?" style="rhombus;whiteSpace=wrap;html=1;rounded=0;strokeColor=light-dark(#000000,#000000);align=center;verticalAlign=middle;fontFamily=Helvetica;fontSize=11;fontColor=default;labelBackgroundColor=default;" parent="1" vertex="1">
          <mxGeometry x="320" y="310" width="80" height="120" as="geometry" />
        </mxCell>
        <mxCell id="xy5n8G1pJrpaB1OT9_6e-19" value="SI" style="text;html=1;align=center;verticalAlign=middle;resizable=0;points=[];autosize=1;strokeColor=none;fillColor=default;fontFamily=Helvetica;fontSize=11;fontColor=default;labelBackgroundColor=default;" parent="1" vertex="1">
          <mxGeometry x="260" y="310" width="30" height="30" as="geometry" />
        </mxCell>
        <mxCell id="xy5n8G1pJrpaB1OT9_6e-20" value="NO" style="text;html=1;align=center;verticalAlign=middle;resizable=0;points=[];autosize=1;strokeColor=none;fillColor=default;fontFamily=Helvetica;fontSize=11;fontColor=default;labelBackgroundColor=default;" parent="1" vertex="1">
          <mxGeometry x="413.5" y="330" width="40" height="30" as="geometry" />
        </mxCell>
        <mxCell id="xy5n8G1pJrpaB1OT9_6e-26" value="NO" style="text;html=1;align=center;verticalAlign=middle;resizable=0;points=[];autosize=1;strokeColor=none;fillColor=default;fontFamily=Helvetica;fontSize=11;fontColor=default;labelBackgroundColor=default;" parent="1" vertex="1">
          <mxGeometry x="105" y="585" width="40" height="30" as="geometry" />
        </mxCell>
        <mxCell id="xy5n8G1pJrpaB1OT9_6e-36" style="edgeStyle=orthogonalEdgeStyle;rounded=0;orthogonalLoop=1;jettySize=auto;html=1;entryX=1;entryY=0.5;entryDx=0;entryDy=0;strokeColor=light-dark(#000000,#000000);align=center;verticalAlign=middle;fontFamily=Helvetica;fontSize=11;fontColor=default;fillColor=default;labelBackgroundColor=default;endArrow=classic;" parent="1" source="xy5n8G1pJrpaB1OT9_6e-29" target="xy5n8G1pJrpaB1OT9_6e-12" edge="1">
          <mxGeometry relative="1" as="geometry">
            <Array as="points">
              <mxPoint x="520" y="170" />
            </Array>
          </mxGeometry>
        </mxCell>
        <mxCell id="xy5n8G1pJrpaB1OT9_6e-29" value="&amp;nbsp;Sensor Luminosidad Off" style="rounded=0;whiteSpace=wrap;html=1;strokeColor=light-dark(#000000,#000000);align=center;verticalAlign=middle;fontFamily=Helvetica;fontSize=11;fontColor=default;labelBackgroundColor=default;" parent="1" vertex="1">
          <mxGeometry x="480" y="355" width="100" height="30" as="geometry" />
        </mxCell>
        <mxCell id="xy5n8G1pJrpaB1OT9_6e-33" value="Fin" style="ellipse;whiteSpace=wrap;html=1;rounded=0;strokeColor=light-dark(#000000,#000000);align=center;verticalAlign=middle;fontFamily=Helvetica;fontSize=11;fontColor=default;labelBackgroundColor=default;" parent="1" vertex="1">
          <mxGeometry x="90" y="680" width="120" height="50" as="geometry" />
        </mxCell>
        <mxCell id="xy5n8G1pJrpaB1OT9_6e-38" style="edgeStyle=orthogonalEdgeStyle;rounded=0;orthogonalLoop=1;jettySize=auto;html=1;entryX=0.5;entryY=0;entryDx=0;entryDy=0;strokeColor=light-dark(#000000,#000000);align=center;verticalAlign=middle;fontFamily=Helvetica;fontSize=11;fontColor=default;labelBackgroundColor=default;endArrow=classic;" parent="1" source="xy5n8G1pJrpaB1OT9_6e-37" target="xy5n8G1pJrpaB1OT9_6e-33" edge="1">
          <mxGeometry relative="1" as="geometry" />
        </mxCell>
        <mxCell id="xy5n8G1pJrpaB1OT9_6e-40" style="edgeStyle=orthogonalEdgeStyle;rounded=0;orthogonalLoop=1;jettySize=auto;html=1;entryX=0;entryY=0.5;entryDx=0;entryDy=0;strokeColor=light-dark(#000000,#000000);align=center;verticalAlign=middle;fontFamily=Helvetica;fontSize=11;fontColor=default;labelBackgroundColor=default;endArrow=classic;" parent="1" source="xy5n8G1pJrpaB1OT9_6e-37" target="xy5n8G1pJrpaB1OT9_6e-39" edge="1">
          <mxGeometry relative="1" as="geometry" />
        </mxCell>
        <mxCell id="xy5n8G1pJrpaB1OT9_6e-37" value="Prender Luces?" style="rhombus;whiteSpace=wrap;html=1;rounded=0;strokeColor=light-dark(#000000,#000000);align=center;verticalAlign=middle;fontFamily=Helvetica;fontSize=11;fontColor=default;labelBackgroundColor=default;" parent="1" vertex="1">
          <mxGeometry x="120" y="505" width="60" height="65" as="geometry" />
        </mxCell>
        <mxCell id="xy5n8G1pJrpaB1OT9_6e-39" value="Regulacion Intensidad" style="rounded=0;whiteSpace=wrap;html=1;strokeColor=light-dark(#000000,#000000);align=center;verticalAlign=middle;fontFamily=Helvetica;fontSize=11;fontColor=default;labelBackgroundColor=default;" parent="1" vertex="1">
          <mxGeometry x="294" y="507.5" width="120" height="60" as="geometry" />
        </mxCell>
        <mxCell id="xy5n8G1pJrpaB1OT9_6e-41" value="SI" style="text;html=1;align=center;verticalAlign=middle;resizable=0;points=[];autosize=1;strokeColor=none;fillColor=default;fontFamily=Helvetica;fontSize=11;fontColor=default;labelBackgroundColor=default;" parent="1" vertex="1">
          <mxGeometry x="225" y="498" width="30" height="30" as="geometry" />
        </mxCell>
      </root>
    </mxGraphModel>
  </diagram>
</mxfile>
